<svg width="16" height="16" fill="none" xmlns="http://www.w3.org/2000/svg"><path fill-rule="evenodd" clip-rule="evenodd" d="m11.159 1.06 3.781 3.782L4.727 15.055l-3.992.798a.5.5 0 0 1-.588-.588l.798-3.992L11.158 1.06ZM2.177 11.932l8.982-8.981 1.89 1.89-8.981 8.982-2.364.473.473-2.364Z" fill="#CB11AB"/><path fill-rule="evenodd" clip-rule="evenodd" d="m13.995 5.787-3.782-3.781L11.631.587a2.005 2.005 0 0 1 2.836 0l.946.946a2.006 2.006 0 0 1 0 2.836l-1.418 1.418Zm.473-2.363a.668.668 0 0 0 0-.946l-.946-.945a.668.668 0 0 0-.945 0l-.473.473 1.89 1.89.473-.472Z" fill="#CB11AB"/></svg>