<svg width="32" height="25" fill="none" xmlns="http://www.w3.org/2000/svg"><rect y=".5" width="32" height="24" rx="4" fill="#F6F6FA"/><path fill-rule="evenodd" clip-rule="evenodd" d="M26.934 16.837v-.272h-.071l-.082.186-.081-.186h-.071v.272h.05v-.205l.076.177h.053l.076-.178v.206h.05Zm-.45 0v-.226h.091v-.045h-.231v.046h.09v.225h.05Z" fill="#F79410"/><path fill-rule="evenodd" clip-rule="evenodd" d="M18.888 18.001h-6.124V6.995h6.124V18Z" fill="#FF5F00"/><path fill-rule="evenodd" clip-rule="evenodd" d="M13.152 12.5a6.989 6.989 0 0 1 2.673-5.504A7 7 0 0 0 4.5 12.5a7 7 0 0 0 11.325 5.504 6.988 6.988 0 0 1-2.673-5.503Z" fill="#EB001B"/><path fill-rule="evenodd" clip-rule="evenodd" d="M27.15 12.5a7 7 0 0 1-11.326 5.503 6.987 6.987 0 0 0 2.674-5.503 6.987 6.987 0 0 0-2.674-5.504A7 7 0 0 1 27.15 12.5" fill="#F79410"/></svg>