<svg width="32" height="25" fill="none" xmlns="http://www.w3.org/2000/svg"><rect y=".5" width="32" height="24" rx="4" fill="#F6F6FA"/><path fill-rule="evenodd" clip-rule="evenodd" d="M18.888 18.002h-6.124V6.995h6.124v11.007Z" fill="#6C6BBD"/><path fill-rule="evenodd" clip-rule="evenodd" d="M13.152 12.5a6.989 6.989 0 0 1 2.673-5.503A7 7 0 0 0 4.5 12.5a7 7 0 0 0 11.325 5.503 6.989 6.989 0 0 1-2.673-5.503Z" fill="#EB001B"/><path fill-rule="evenodd" clip-rule="evenodd" d="M27.15 12.5a7 7 0 0 1-11.326 5.503 6.987 6.987 0 0 0 2.674-5.503 6.987 6.987 0 0 0-2.674-5.503A7 7 0 0 1 27.15 12.5" fill="#0099DF"/></svg>