<svg width="32" height="25" fill="none" xmlns="http://www.w3.org/2000/svg"><rect y=".5" width="32" height="24" rx="4" fill="#F6F6FA"/><path fill-rule="evenodd" clip-rule="evenodd" d="M16.47 10.678c-.017 1.408 1.255 2.193 2.214 2.66.985.48 1.315.787 1.312 1.215-.008.656-.786.946-1.514.957-1.27.02-2.01-.343-2.596-.617l-.458 2.141c.589.272 1.68.509 2.811.519 2.656 0 4.393-1.311 4.403-3.344.01-2.579-3.568-2.722-3.544-3.875.009-.35.342-.722 1.073-.817.362-.048 1.361-.085 2.493.437l.445-2.072a6.776 6.776 0 0 0-2.366-.434c-2.5 0-4.258 1.328-4.272 3.23Zm10.91-3.052c-.485 0-.894.283-1.076.717l-3.794 9.058h2.654l.528-1.46h3.243l.306 1.46h2.339l-2.041-9.775h-2.16Zm.37 2.64.767 3.67h-2.098l1.332-3.67Zm-14.496-2.64-2.092 9.775h2.528l2.091-9.775h-2.527Zm-3.741 0L6.88 14.28 5.816 8.622c-.125-.631-.618-.996-1.166-.996H.347l-.06.284c.883.192 1.887.5 2.495.832.372.202.478.378.6.858L5.4 17.4h2.67l4.097-9.774H9.513Z" fill="#1434CB"/></svg>