<svg width="32" height="25" fill="none" xmlns="http://www.w3.org/2000/svg"><rect y=".5" width="32" height="24" rx="4" fill="#F6F6FA"/><path d="m17.682 9.344-1.817 3.914h-.184V8.5h-2.595v8.002h2.152c.584 0 1.103-.335 1.352-.854l1.827-3.904h.184v4.758h2.596V8.5h-2.185c-.562 0-1.092.336-1.33.844Zm-9.709.206-1.07 3.708h-.185L5.637 9.55A1.46 1.46 0 0 0 4.23 8.5H1.668v8.002h2.595v-4.758h.184l1.493 4.758h1.73l1.492-4.758h.184v4.758h2.595V8.5H9.38a1.45 1.45 0 0 0-1.406 1.05Zm14.352 2.517v4.435h2.596v-2.596h2.79c1.213 0 2.24-.768 2.619-1.839h-8.005Z" fill="#319B42"/><path d="M27.636 8.5h-5.777c.357 1.904 2.023 3.245 4.025 3.245h4.489c.032-.173.054-.367.054-.562 0-1.547-1.244-2.683-2.791-2.683Z" fill="url(#a)"/><defs><linearGradient id="a" x1="21.859" y1="10.123" x2="30.427" y2="10.123" gradientUnits="userSpaceOnUse"><stop stop-color="#00A3E1"/><stop offset=".304" stop-color="#009ADD"/><stop offset=".799" stop-color="#0082D4"/><stop offset="1" stop-color="#0076CF"/></linearGradient></defs></svg>